<?xml version="1.0" standalone="no"?>
<!DOCTYPE svg PUBLIC "-//W3C//DTD SVG 20010904//EN"
 "http://www.w3.org/TR/2001/REC-SVG-20010904/DTD/svg10.dtd">
<svg version="1.0" xmlns="http://www.w3.org/2000/svg"
 width="1024.000000pt" height="1024.000000pt" viewBox="0 0 1024.000000 1024.000000"
 preserveAspectRatio="xMidYMid meet">

<g transform="translate(0.000000,1024.000000) scale(0.100000,-0.100000)"
fill="currentColor" stroke="none">
<path d="M4270 8319 c-14 -5 -679 -663 -1478 -1462 -1019 -1018 -1466 -1471
-1496 -1517 -62 -93 -81 -156 -80 -265 1 -108 23 -175 88 -262 69 -92 1572
-1587 1587 -1578 8 6 10 4 4 -4 -7 -12 28 -45 50 -46 6 -1 9 -7 7 -14 -4 -17
1282 -1306 1317 -1321 19 -7 272 -10 842 -8 l815 3 77 38 c75 37 109 70 1162
1120 1149 1146 1125 1119 1125 1212 0 83 -68 172 -147 194 -25 7 -240 11 -605
11 -522 0 -571 -1 -625 -18 -32 -10 -72 -27 -89 -38 -18 -11 -593 -578 -1279
-1262 -687 -683 -1252 -1242 -1256 -1242 -4 0 46 54 112 120 65 66 118 125
117 132 -2 7 5 12 14 10 16 -2 45 34 40 50 -1 5 2 7 7 5 15 -4 72 44 65 55 -4
6 -3 8 3 5 5 -3 33 18 61 48 33 34 47 56 39 59 -7 3 -5 4 4 3 10 -1 92 73 200
182 l183 184 -643 638 c-354 352 -648 636 -654 632 -5 -3 -7 -2 -4 4 8 13 -37
56 -48 46 -4 -5 -5 -3 -2 3 8 14 -17 37 -28 26 -5 -4 -5 -1 -1 6 5 8 -153 171
-459 475 -257 254 -473 474 -481 489 -17 32 -18 71 -3 101 6 12 528 540 1160
1172 l1148 1150 -424 424 c-234 234 -424 426 -422 427 1 2 558 -552 1237
-1230 1340 -1337 1275 -1277 1413 -1306 36 -7 241 -10 633 -8 l579 3 45 25
c24 14 58 45 75 68 26 38 30 52 30 105 -1 38 -7 74 -17 92 -18 33 -2162 2179
-2218 2220 -76 56 -64 55 -944 54 -503 0 -820 -4 -836 -10z m-290 -1983 c0 -2
-8 -10 -17 -17 -16 -13 -17 -12 -4 4 13 16 21 21 21 13z m-250 -250 c0 -2 -8
-10 -17 -17 -16 -13 -17 -12 -4 4 13 16 21 21 21 13z m-2450 -821 c0 -8 -4
-15 -10 -15 -5 0 -7 7 -4 15 4 8 8 15 10 15 2 0 4 -7 4 -15z m1521 -118 c-10
-9 -11 -8 -5 6 3 10 9 15 12 12 3 -3 0 -11 -7 -18z m-1170 -644 c13 -16 12
-17 -3 -4 -10 7 -18 15 -18 17 0 8 8 3 21 -13z m3267 -1998 c-3 -3 -9 2 -12
12 -6 14 -5 15 5 6 7 -7 10 -15 7 -18z m-1143 -125 c10 -11 16 -20 13 -20 -3
0 -13 9 -23 20 -10 11 -16 20 -13 20 3 0 13 -9 23 -20z"/>
<path d="M4971 6157 c-80 -149 -231 -432 -336 -627 -318 -589 -635 -1187 -635
-1199 0 -17 394 -15 407 2 6 6 68 121 139 254 71 134 132 243 135 243 3 0 102
-103 219 -230 118 -126 217 -230 221 -230 4 0 105 102 224 228 120 125 221
228 225 230 4 1 57 -91 118 -205 61 -114 122 -229 136 -255 l26 -48 205 0
c133 0 205 4 205 10 0 6 -104 203 -232 438 -127 235 -377 697 -554 1027 -362
672 -342 635 -352 635 -4 0 -72 -123 -151 -273z m308 -756 c120 -224 140 -266
129 -280 -7 -9 -75 -82 -151 -162 l-139 -147 -81 87 c-45 47 -112 117 -149
156 l-66 70 65 120 c35 66 103 194 150 284 56 107 88 159 93 150 4 -8 71 -133
149 -278z m439 -258 c-54 -2 -142 -2 -195 0 -54 1 -10 3 97 3 107 0 151 -2 98
-3z m-598 -353 c0 -5 -5 -10 -11 -10 -5 0 -7 5 -4 10 3 6 8 10 11 10 2 0 4 -4
4 -10z m-5 -65 c0 -19 -3 -35 -7 -35 -4 0 -8 19 -8 42 0 49 13 43 15 -7z m5
-155 c0 -5 -4 -10 -10 -10 -5 0 -10 5 -10 10 0 6 5 10 10 10 6 0 10 -4 10 -10z
m-9 -47 c-8 -15 -10 -15 -11 -2 0 17 10 32 18 25 2 -3 -1 -13 -7 -23z m3 -77
c1 -25 -1 -46 -5 -46 -12 0 -15 18 -11 61 5 51 13 44 16 -15z"/>
</g>
</svg>
